<svg xmlns="http://www.w3.org/2000/svg" viewBox="0 0 1200 675" role="img" aria-labelledby="t d">
<title id="t">Komunitas dan dukungan PPI Ishikawa</title><desc id="d">Ilustrasi mahasiswa menyambut pendatang baru, belajar bersama, keluarga, dan meja bantuan komunitas.</desc>
<defs><linearGradient id="b" x1="0" y1="0" x2="1" y2="1"><stop stop-color="#e9f4f2"/><stop offset=".55" stop-color="#fff7e8"/><stop offset="1" stop-color="#f2dfd3"/></linearGradient><filter id="s"><feDropShadow dy="10" stdDeviation="12" flood-color="#203039" flood-opacity=".14"/></filter></defs>
<rect width="1200" height="675" rx="36" fill="url(#b)"/>
<path d="M0 350 180 220l123 73 156-129 150 139 148-100 186 121 139-93 118 81v363H0Z" fill="#87aa9e" opacity=".7"/>
<path d="M0 423c182-46 321-19 494-27 220-10 381-80 706-22v301H0Z" fill="#f2eed9"/>
<g filter="url(#s)" transform="translate(580 258)">
<rect width="512" height="282" rx="34" fill="#fff"/>
<rect x="35" y="34" width="442" height="74" rx="22" fill="#edf3ee"/>
<circle cx="78" cy="71" r="22" fill="#b63831"/><path d="M68 71h20M78 61v20" stroke="#fff" stroke-width="5" stroke-linecap="round"/>
<rect x="120" y="54" width="167" height="16" rx="8" fill="#34434a" opacity=".82"/><rect x="120" y="79" width="127" height="10" rx="5" fill="#92a09f"/>
<rect x="54" y="141" width="179" height="91" rx="18" fill="#f6efe2"/>
<rect x="266" y="141" width="191" height="91" rx="18" fill="#edf3f5"/>
<rect x="86" y="164" width="115" height="11" rx="6" fill="#c7b99f"/><rect x="86" y="188" width="82" height="9" rx="5" fill="#ded4c3"/>
<rect x="299" y="164" width="125" height="11" rx="6" fill="#9eafb7"/><rect x="299" y="188" width="95" height="9" rx="5" fill="#cbd6db"/>
<rect x="171" y="244" width="168" height="26" rx="13" fill="#b63831"/>
</g>
<!-- newcomer -->
<g filter="url(#s)">
<rect x="82" y="473" width="110" height="137" rx="25" fill="#313a44"/><rect x="108" y="443" width="58" height="45" rx="17" fill="none" stroke="#313a44" stroke-width="12"/>
<circle cx="201" cy="348" r="59" fill="#d89a72"/><path d="M147 343c6-65 105-87 119-9-33-21-73-20-119 9Z" fill="#25272a"/>
<path d="M126 534c13-107 42-145 81-145 46 0 77 39 92 145Z" fill="#b63831"/>
<path d="M108 397 76 470" stroke="#303942" stroke-width="17" stroke-linecap="round"/>
</g>
<!-- greeter hijab -->
<g filter="url(#s)">
<circle cx="383" cy="358" r="58" fill="#d89a72"/><path d="M323 354c9-72 114-90 121-2l-10 79H334Z" fill="#ead7bd"/><path d="M333 386c8 30 27 50 50 59 27-10 45-31 52-60-35 10-69 10-102 1Z" fill="#ead7bd"/>
<path d="M298 543c13-101 44-139 87-139 46 0 79 40 93 139Z" fill="#c94b3e"/>
<path d="M431 414c55-45 91-62 128-64" stroke="#d89a72" stroke-width="18" stroke-linecap="round"/>
<circle cx="559" cy="350" r="11" fill="#d89a72"/>
</g>
<!-- study group foreground -->
<g filter="url(#s)">
<rect x="282" y="543" width="633" height="81" rx="28" fill="#e7d6bb"/>
<rect x="514" y="514" width="130" height="77" rx="10" fill="#66767c"/><rect x="524" y="524" width="110" height="54" rx="6" fill="#dce6e9"/>
<rect x="690" y="562" width="91" height="15" rx="8" fill="#b63831"/><rect x="703" y="542" width="78" height="15" rx="8" fill="#d6af65"/>
<circle cx="434" cy="479" r="45" fill="#d99a73"/><path d="M394 472c9-47 74-56 85-6-26-14-54-12-85 6Z" fill="#25272a"/><path d="M373 554c9-58 29-84 61-84 35 0 57 25 68 84Z" fill="#c64238"/>
<circle cx="759" cy="477" r="45" fill="#d99a73"/><path d="M717 472c8-49 77-59 88-4-27-16-57-14-88 4Z" fill="#2c2828"/><path d="M694 554c10-58 31-84 65-84 34 0 57 26 67 84Z" fill="#f4efe6"/>
</g>
<!-- family -->
<g filter="url(#s)" transform="translate(962 78)">
<circle cx="76" cy="84" r="45" fill="#d99a73"/><path d="M38 79c7-47 67-58 78-8-22-13-50-11-78 8Z" fill="#26272a"/>
<path d="M24 179c8-69 27-97 54-97 31 0 51 28 60 97Z" fill="#f4efe7"/>
<circle cx="128" cy="108" r="29" fill="#d99a73"/><path d="M100 106c6-31 43-39 55-7-17-9-34-7-55 7Z" fill="#342826"/>
<path d="M106 167c5-39 14-57 26-57 17 0 28 18 33 57Z" fill="#c64037"/>
</g>
<g opacity=".9">
<circle cx="83" cy="106" r="34" fill="#d6a44f"/><circle cx="116" cy="83" r="25" fill="#d05d3e"/><circle cx="1104" cy="176" r="38" fill="#be4837"/><circle cx="1141" cy="150" r="29" fill="#d47b45"/>
</g>
</svg>